<svg xmlns="http://www.w3.org/2000/svg" width="57" height="60"><path fill="#fff" d="M44.025 53a4 4 0 01-3.992 4 4 4 0 010-8 4 4 0 013.992 4zm-1.996 0a2 2 0 00-1.996-2 2 2 0 000 4 2 2 0 001.996-2zM35.042 4c0-.553.447-1 .998-1h3.993a.999.999 0 010 2H36.04a.999.999 0 01-.998-1zm6.987 0c0-.553.447-1 .998-1h.998a.999.999 0 010 2h-.998a.999.999 0 01-.998-1zm14.972.405v51.19A4.406 4.406 0 0152.604 60H27.46a4.406 4.406 0 01-4.397-4.405V40.06a13.983 13.983 0 01-4.645-2.947L1.787 52.729a.995.995 0 01-1.412-.045 1 1 0 01.046-1.413l16.656-15.637A13.932 13.932 0 0114.08 27c0-5.957 3.74-11.043 8.984-13.061V4.405A4.406 4.406 0 0127.46 0h25.144A4.405 4.405 0 0157 4.405zm-31.941 0V6h29.945V4.405A2.406 2.406 0 0052.604 2H27.46a2.406 2.406 0 00-2.401 2.405zm-.663 34.018c.158.05.318.09.476.134.185.05.37.102.557.144a14.304 14.304 0 001.131.196c.136.017.272.035.408.048.358.033.72.055 1.086.055 6.605 0 11.978-5.383 11.978-12S34.66 15 28.055 15a11.802 11.802 0 00-1.494.103c-.216.027-.43.06-.642.099-.164.03-.327.06-.489.097-.187.042-.372.093-.557.144-.158.044-.318.083-.476.134-4.82 1.553-8.32 6.084-8.32 11.423s3.5 9.87 8.32 11.423zm.713 2.258c-.017-.004-.033-.005-.05-.008V46h29.945V8H25.06v5.327c.017-.003.033-.004.05-.008.41-.088.826-.154 1.248-.205.072-.01.141-.025.213-.033.488-.052.982-.081 1.484-.081 7.705 0 13.974 6.28 13.974 14S35.76 41 28.055 41c-.502 0-.996-.03-1.484-.081-.072-.008-.142-.024-.213-.033a13.47 13.47 0 01-1.248-.205zm29.895 14.914V48H25.06v7.595A2.406 2.406 0 0027.46 58h25.145c1.323 0 2.4-1.08 2.4-2.405z"/></svg>