<svg xmlns="http://www.w3.org/2000/svg" width="60" height="60"><path fill="#fff" d="M15 41c0-2.206 1.794-4 4-4s4 1.794 4 4-1.794 4-4 4-4-1.794-4-4zm2 0c0 1.103.897 2 2 2s2-.897 2-2-.897-2-2-2-2 .897-2 2zm31-25c0 2.206-1.794 4-4 4s-4-1.794-4-4 1.794-4 4-4 4 1.794 4 4zm-2 0c0-1.103-.897-2-2-2s-2 .897-2 2 .897 2 2 2 2-.897 2-2zM11 41c0-4.411 3.589-8 8-8s8 3.589 8 8c0 4.41-3.589 8-8 8s-8-3.59-8-8zm2 0c0 3.309 2.69 6 6 6 3.309 0 6-2.691 6-6 0-3.31-2.691-6-6-6-3.31 0-6 2.69-6 6zm46.164-3.984a29.748 29.748 0 01-1.091 3.552c-.003.01-.001.02-.005.03-.101.267-.211.527-.319.789-.045.11-.087.222-.134.332a29.852 29.852 0 01-5.285 8.31c-.014.017-.036.023-.051.038-.45.499-.92.98-1.402 1.448l-.118.113a29.297 29.297 0 01-2.21 1.925c-.147.116-.293.233-.442.347-.265.202-.536.395-.808.588-.172.122-.34.249-.515.367-.408.277-.823.544-1.245.8-.22.134-.447.258-.671.386-.24.137-.477.275-.72.406-.073.038-.141.082-.214.12-.027.013-.055.02-.082.03A29.81 29.81 0 0130 60c-2.989 0-5.876-.445-8.603-1.264-.012-.003-.025-.001-.037-.006-.036-.01-.069-.023-.104-.034a29.875 29.875 0 01-1.597-.534c-.204-.074-.402-.16-.603-.238-.295-.116-.59-.232-.879-.356a28.956 28.956 0 01-.946-.428c-.135-.064-.271-.128-.405-.194A29.852 29.852 0 013.06 43.184c-.07-.141-.137-.284-.205-.427a29.643 29.643 0 01-.42-.927 28.528 28.528 0 01-.374-.923c-.073-.187-.152-.371-.221-.56a29.21 29.21 0 01-.54-1.613l-.031-.094c-.002-.007 0-.015-.001-.022A29.89 29.89 0 010 30a29.846 29.846 0 016.897-19.111c.015-.023.024-.05.042-.07a30.063 30.063 0 014.518-4.387l.006-.007c.01-.01.023-.017.035-.026.36-.283.728-.558 1.101-.824l.069-.051c.175-.124.353-.243.53-.363l.105-.07c.34-.227.683-.448 1.03-.661l.257-.156c.165-.1.328-.2.495-.297.14-.08.285-.155.427-.234.122-.068.244-.135.367-.201.139-.074.277-.15.417-.221.06-.031.117-.065.177-.095.014-.007.029-.007.042-.013l.144-.071c.172-.086.344-.173.518-.256.214-.101.43-.196.646-.292.22-.098.44-.2.664-.292.136-.057.275-.108.412-.163a29.72 29.72 0 014.636-1.43c.023-.004.045-.01.067-.015.399-.087.802-.164 1.207-.235l.085-.017h.008A30.058 30.058 0 0130 0c4.126 0 8.06.838 11.642 2.353.016.005.033.005.048.012a29.876 29.876 0 017.617 4.699 30.27 30.27 0 013.686 3.695 29.895 29.895 0 014.643 7.55c.007.017.007.035.013.05a29.84 29.84 0 011.876 16.922l-.001.018-.017.08a29.02 29.02 0 01-.32 1.534l-.023.103zM49.149 50.4c.376-.353.738-.72 1.093-1.092A6.449 6.449 0 0149 45.5a6.508 6.508 0 017.476-6.427c.406-1.177.739-2.383.983-3.613a4.628 4.628 0 01-1.137-2.414L56.161 32h-1.777l-.292 1.519a4.7 4.7 0 01-2.826 3.466 4.7 4.7 0 01-4.448-.452l-1.281-.87-1.257 1.259.626.853a4.691 4.691 0 01.587 4.51 4.694 4.694 0 01-3.499 2.908l-.994.19v1.778l1.046.162a4.69 4.69 0 013.604 2.774c.408.935.498 1.95.283 2.909.154-.107.306-.216.458-.326.163-.118.326-.235.486-.356.163-.123.321-.251.481-.378.209-.165.418-.33.621-.502.1-.084.197-.171.295-.256a27.8 27.8 0 00.766-.683c.037-.034.073-.07.109-.105zm6.232-8.612c.12-.258.232-.52.345-.782A4.505 4.505 0 0051 45.5c0 .806.213 1.58.61 2.26a28.33 28.33 0 003.716-5.856l.055-.116zm.283-22.97a28.009 28.009 0 00-3.162-5.46l-.082-.113a29.8 29.8 0 00-.628-.8c-.072-.09-.141-.181-.214-.27-.161-.194-.33-.381-.496-.571-.13-.148-.255-.3-.387-.446-.055-.06-.112-.115-.167-.174a28.455 28.455 0 00-1.47-1.472c-.074-.068-.145-.14-.22-.208-.139-.128-.284-.248-.426-.372-.195-.171-.389-.344-.589-.51-.085-.07-.174-.137-.26-.206a26.34 26.34 0 00-.81-.636c-.032-.025-.066-.048-.099-.073a28.06 28.06 0 00-5.47-3.17C35.843 5.623 32 10.475 32 16c0 6.617 5.383 12 12 12 5.526 0 10.377-3.842 11.664-9.181zM21.252 3.408l-.194.066c-.63.212-1.253.444-1.865.7A4.956 4.956 0 0121 8c0 2.757-2.243 5-5 5-2.307 0-4.236-1.58-4.81-3.708-.135.122-.271.244-.404.369a28.666 28.666 0 00-1.627 1.665c-.101.113-.2.23-.3.345a3.9 3.9 0 01-.508 3.342l-.361.534.768.766.544-.4a3.956 3.956 0 013.799-.493 3.95 3.95 0 012.449 2.948l.122.632h1.085l.034-.22a3.942 3.942 0 012.405-3.064 3.942 3.942 0 013.869.467l.177.13.768-.767-.361-.534a3.95 3.95 0 01-.352-3.816 3.951 3.951 0 013.036-2.336L27 8.757V7.672l-.632-.121A3.954 3.954 0 0123.42 5.1a3.957 3.957 0 01-.193-2.267c-.667.166-1.325.359-1.976.573zM13 8c0 1.654 1.346 3 3 3s3-1.346 3-3c0-1.27-.792-2.377-1.966-2.805-.193.1-.38.215-.571.32a27.36 27.36 0 00-1.372.8c-.205.13-.404.27-.606.405-.418.28-.833.564-1.235.864-.082.06-.16.126-.24.188A2.94 2.94 0 0013 8zM3.25 38.28v.006c.154.494.324.98.502 1.462.083.224.174.445.263.666a27.253 27.253 0 00.838 1.888 28.186 28.186 0 0012.839 12.84c.107.053.213.106.32.157a26.023 26.023 0 001.571.684c.222.088.443.18.668.264a27.805 27.805 0 001.466.502 15.893 15.893 0 0011.88-9.186c.009-.022.006-.046.016-.068.008-.018.024-.03.033-.046A16.035 16.035 0 0035 40.999c0-8.821-7.178-16-16-16-2.006 0-3.928.37-5.703 1.04-.033.018-.057.046-.092.06-.03.012-.059.008-.088.017A15.891 15.891 0 003.25 38.28zM30 58c4.511 0 8.773-1.08 12.552-2.982l1.025-1.513a2.702 2.702 0 00.24-2.608 2.703 2.703 0 00-2.075-1.598l-1.894-.291A1 1 0 0139 48.02v-3.462a1 1 0 01.812-.982l1.805-.347a2.702 2.702 0 002.014-1.674 2.7 2.7 0 00-.338-2.597l-1.133-1.545c-.291-.4-.249-.95.1-1.3l2.447-2.447c.339-.338.872-.39 1.268-.121l1.965 1.332a2.67 2.67 0 002.561.261 2.675 2.675 0 001.627-1.995l.448-2.331a1 1 0 01.982-.812h3.46c.466 0 .855.325.962.77.007-.257.02-.512.02-.77 0-2.876-.437-5.651-1.246-8.265a13.994 13.994 0 01-2.186 3.419l.745.745a.999.999 0 11-1.414 1.414l-.752-.752A14.005 14.005 0 0145 29.956V31a1 1 0 11-2 0v-1.052a13.923 13.923 0 01-8.154-3.381l-.745.745a.998.998 0 01-1.414 0 .999.999 0 010-1.414l.745-.745a13.919 13.919 0 01-3.381-8.154H29a1 1 0 110-2h1.044a14.005 14.005 0 013.395-8.147l-.752-.752A.999.999 0 1134.1 4.686l.745.745a13.95 13.95 0 013.419-2.185A27.915 27.915 0 0030 2a28.1 28.1 0 00-4.369.343l-.105.142a1.936 1.936 0 00-.244 1.885 1.935 1.935 0 001.463 1.216l1.443.277a1 1 0 01.812.982v2.77a1 1 0 01-.85.988l-1.515.233a1.933 1.933 0 00-1.507 1.159 1.94 1.94 0 00.175 1.896l.825 1.218a1 1 0 01-.121 1.268l-1.958 1.957a.998.998 0 01-1.298.1l-.87-.637a1.95 1.95 0 00-1.92-.231 1.95 1.95 0 00-1.194 1.52l-.164 1.066a1 1 0 01-.988.848h-2.769a1 1 0 01-.982-.81l-.278-1.443a1.939 1.939 0 00-1.216-1.465 1.935 1.935 0 00-1.886.246l-1.236.906a.998.998 0 01-1.298-.1l-1.958-1.957A.958.958 0 015.767 16 27.816 27.816 0 002 30c0 1.454.112 2.883.327 4.279a17.828 17.828 0 019.225-9.672l-.484-1.244a1 1 0 111.864-.725l.487 1.253A18.126 18.126 0 0119 23c2.248 0 4.392.433 6.377 1.189l.709-1.595a1 1 0 011.828.812l-.708 1.593a18.095 18.095 0 018.165 8.562l1.267-.492a1 1 0 01.724 1.863l-1.258.489A17.91 17.91 0 0137 41c0 2.247-.41 4.402-1.157 6.39l1.564.696a1 1 0 11-.814 1.827l-1.571-.698a17.823 17.823 0 01-9.3 8.458c1.395.215 2.824.327 4.278.327z"/></svg>