<svg xmlns="http://www.w3.org/2000/svg" width="52" height="60"><path fill="#fff" d="M34.23 23.923a1.49 1.49 0 010 2.122L24.125 36.03a1.507 1.507 0 01-2.135 0l-4.22-4.22a1.49 1.49 0 010-2.122 1.51 1.51 0 012.135 0l3.159 3.165 9.033-8.93a1.522 1.522 0 012.135 0zM26 60C11.66 60 0 48.408 0 34.154V11.63c0-.6.358-1.153.925-1.386L25.42.088c.37-.16.79-.16 1.16 0l24.495 10.157c.555.233.925.785.925 1.386v22.523C52 48.396 40.339 60 26 60zm22.977-25.846V12.637L26 3.106 3.023 12.637v21.517c0 12.598 10.304 22.84 22.977 22.84s22.977-10.255 22.977-22.84z"/></svg>